<svg width="24" height="25" viewBox="0 0 24 25" fill="none" xmlns="http://www.w3.org/2000/svg">
<path d="M18 6.21338H6C5.46957 6.21338 4.96086 6.42409 4.58578 6.79916C4.21071 7.17424 4 7.68295 4 8.21338V15.7134C4 16.2438 4.21071 16.7525 4.58578 17.1276C4.96086 17.5027 5.46957 17.7134 6 17.7134H18C18.5304 17.7134 19.0391 17.5027 19.4142 17.1276C19.7893 16.7525 20 16.2438 20 15.7134V8.21338C20 7.68295 19.7893 7.17424 19.4142 6.79916C19.0391 6.42409 18.5304 6.21338 18 6.21338ZM17.815 9.59837L12.315 14.0984C12.2259 14.1706 12.1147 14.2101 12 14.2101C11.8853 14.2101 11.7741 14.1706 11.685 14.0984L6.185 9.59837C6.12669 9.55979 6.07712 9.5094 6.03949 9.45047C6.00187 9.39154 5.97702 9.32537 5.96655 9.25624C5.95608 9.18711 5.96024 9.11655 5.97873 9.04912C5.99723 8.98169 6.02966 8.91889 6.07394 8.86478C6.11822 8.81066 6.17335 8.76644 6.23578 8.73495C6.29821 8.70347 6.36655 8.68544 6.43639 8.68201C6.50622 8.67858 6.576 8.68983 6.64122 8.71504C6.70643 8.74025 6.76563 8.77887 6.815 8.82838L12 13.0684L17.185 8.82838C17.2883 8.76003 17.4133 8.73245 17.5358 8.75099C17.6582 8.76953 17.7695 8.83287 17.8479 8.92874C17.9263 9.02461 17.9664 9.14617 17.9603 9.26988C17.9542 9.3936 17.9025 9.51066 17.815 9.59837Z" fill="#ffff"/>
</svg>
