<svg width="24" height="25" viewBox="0 0 24 25" fill="none" xmlns="http://www.w3.org/2000/svg">
<path d="M17.2289 14.3211C17.1146 14.189 16.9732 14.0829 16.8143 14.0103C16.6554 13.9376 16.4827 13.9 16.3079 13.9C16.1332 13.9 15.9605 13.9376 15.8016 14.0103C15.6427 14.0829 15.5013 14.189 15.387 14.3211C14.9567 14.7462 14.5265 15.1765 14.1014 15.612C14.0614 15.6664 14.0021 15.7033 13.9356 15.715C13.8692 15.7267 13.8008 15.7124 13.7446 15.675C13.4665 15.5228 13.1674 15.4021 12.8998 15.2342C11.6717 14.4383 10.5831 13.4455 9.67785 12.2957C9.20518 11.7384 8.81465 11.1164 8.51816 10.4486C8.48591 10.3932 8.47505 10.3279 8.48762 10.2651C8.50018 10.2022 8.53532 10.1462 8.58637 10.1075C9.01666 9.68768 9.43645 9.26264 9.86149 8.83236C10.0002 8.71713 10.1118 8.57276 10.1885 8.40951C10.2651 8.24626 10.3048 8.06816 10.3048 7.88783C10.3048 7.7075 10.2651 7.52937 10.1885 7.36613C10.1118 7.20288 10.0002 7.05851 9.86149 6.94328L8.84875 5.93053C8.50242 5.58421 8.15609 5.23263 7.79926 4.88105C7.68403 4.7504 7.54232 4.64576 7.38354 4.57408C7.22476 4.50241 7.05255 4.46533 6.87834 4.46533C6.70413 4.46533 6.53191 4.50241 6.37313 4.57408C6.21435 4.64576 6.07264 4.7504 5.95741 4.88105C5.52188 5.30609 5.10733 5.74687 4.6613 6.16666C4.26862 6.53702 4.03371 7.04443 4.00538 7.58347C3.968 8.4675 4.12566 9.34894 4.46716 10.1652C5.12166 11.8621 6.06429 13.4331 7.25353 14.8092C8.81879 16.6888 10.7669 18.213 12.968 19.28C13.9461 19.7921 15.0164 20.1043 16.1164 20.1983C16.4849 20.2397 16.858 20.1927 17.2047 20.0613C17.5515 19.9299 17.8619 19.7179 18.1104 19.4426C18.4778 19.0281 18.8923 18.6503 19.2859 18.2567C19.422 18.1409 19.5313 17.997 19.6062 17.8348C19.6812 17.6726 19.72 17.4961 19.72 17.3174C19.72 17.1388 19.6812 16.9622 19.6062 16.8C19.5313 16.6379 19.422 16.4939 19.2859 16.3781C18.6072 15.6925 17.9215 15.0068 17.2289 14.3211Z" fill="#FFFF"/>
<path d="M19.9508 11.3253C18.5845 8.13372 16.0339 5.59628 12.8353 4.24652C12.7065 4.19843 12.564 4.20282 12.4383 4.25875C12.3127 4.31469 12.2141 4.41769 12.1637 4.54561C12.1362 4.60962 12.1217 4.67846 12.1211 4.74812C12.1205 4.81778 12.1338 4.88686 12.1602 4.95134C12.1865 5.01581 12.2255 5.07438 12.2747 5.12365C12.324 5.17291 12.3826 5.21188 12.447 5.23827C15.3955 6.48392 17.7465 8.82365 19.0063 11.7661C19.0626 11.8908 19.1655 11.9887 19.2929 12.0387C19.4204 12.0887 19.5623 12.0869 19.6885 12.0337C19.7531 12.0054 19.8113 11.9644 19.8597 11.9131C19.9081 11.8619 19.9456 11.8013 19.9701 11.7352C19.9946 11.6691 20.0055 11.5987 20.0022 11.5283C19.9989 11.4579 19.9814 11.3888 19.9508 11.3253Z" fill="#FFFF"/>
<path d="M12.1774 8.08828C13.9646 8.84106 15.3904 10.2574 16.155 12.0396C16.1956 12.1275 16.2597 12.2025 16.3403 12.2562C16.4208 12.3099 16.5147 12.3403 16.6115 12.3439C16.6823 12.3434 16.7522 12.3273 16.8161 12.2967C16.9368 12.2376 17.0302 12.1344 17.077 12.0085C17.1239 11.8825 17.1207 11.7434 17.068 11.6198C16.2013 9.59642 14.5836 7.98811 12.5552 7.13326C12.4303 7.08892 12.2933 7.09349 12.1716 7.14606C12.0499 7.19862 11.9526 7.29527 11.8993 7.41661C11.85 7.54281 11.8514 7.68321 11.9032 7.8084C11.955 7.9336 12.0533 8.03389 12.1774 8.08828Z" fill="#FFFF"/>
</svg>
